<?xml version="1.0" standalone="no"?><!DOCTYPE svg PUBLIC "-//W3C//DTD SVG 1.1//EN" "http://www.w3.org/Graphics/SVG/1.1/DTD/svg11.dtd"><svg t="1715926957028" class="icon" viewBox="0 0 1024 1024" version="1.1" xmlns="http://www.w3.org/2000/svg" p-id="43139" xmlns:xlink="http://www.w3.org/1999/xlink" width="32" height="32"><path d="M416 960H64V224C64 134.4 134.4 64 224 64H832v352c0 19.2-12.8 32-32 32s-32-12.8-32-32V128H224C172.8 128 128 172.8 128 224V896h288c19.2 0 32 12.8 32 32s-12.8 32-32 32zM640 288c0-19.2-12.8-32-32-32h-320c-19.2 0-32 12.8-32 32s12.8 32 32 32h320c19.2 0 32-12.8 32-32z m-128 192c0-19.2-12.8-32-32-32h-192c-19.2 0-32 12.8-32 32s12.8 32 32 32h192c19.2 0 32-12.8 32-32z m-128 192c0-19.2-12.8-32-32-32h-64c-19.2 0-32 12.8-32 32s12.8 32 32 32h64c19.2 0 32-12.8 32-32z m550.4 64c0 25.6-6.4 44.8-12.8 70.4-25.6-6.4-51.2 0-64 19.2-12.8 25.6-6.4 51.2 12.8 64-32 32-70.4 57.6-121.6 70.4 0-25.6-25.6-44.8-51.2-44.8s-44.8 19.2-51.2 44.8c-44.8-12.8-89.6-32-121.6-70.4 19.2-12.8 25.6-44.8 12.8-64-12.8-25.6-38.4-32-64-19.2-6.4-19.2-12.8-44.8-12.8-70.4s6.4-44.8 12.8-70.4c25.6 6.4 51.2 0 64-19.2 12.8-25.6 6.4-51.2-12.8-64 44.8-38.4 83.2-57.6 134.4-70.4 0 25.6 25.6 44.8 51.2 44.8s44.8-19.2 51.2-44.8c44.8 12.8 89.6 32 121.6 70.4-19.2 12.8-25.6 44.8-12.8 64 12.8 25.6 38.4 32 64 19.2-6.4 25.6 0 44.8 0 70.4z m-134.4 0c0-51.2-38.4-89.6-89.6-89.6s-89.6 38.4-89.6 89.6 38.4 89.6 89.6 89.6c51.2 0 89.6-38.4 89.6-89.6z" fill="" p-id="43140"></path></svg>