<?xml version="1.0" standalone="no"?><!DOCTYPE svg PUBLIC "-//W3C//DTD SVG 1.1//EN" "http://www.w3.org/Graphics/SVG/1.1/DTD/svg11.dtd"><svg t="1715910607942" class="icon" viewBox="0 0 1024 1024" version="1.1" xmlns="http://www.w3.org/2000/svg" p-id="12296" xmlns:xlink="http://www.w3.org/1999/xlink" width="32" height="32"><path d="M882.1 695.2H143.7V217.4h738.4v477.8z m-694.9-43.4h651.6v-391H187.2v391z" fill="#4B5E6D" p-id="12297"></path><path d="M646.4 537.3c-8.2 2-16.5 3.4-24.8 4.4v110.1h-21.7V543.2c-16.1 0-30.4-1.9-43.4-5v135.4h-21.7v-142c-16.6-6.5-30.6-15.1-43.4-24.5v155.7H524V804h206.3v43.4H295.7V804h184.6V673.5h-10.9V489.8c-2.9-2.5-5.9-5-8.7-7.4-11.5-9.9-22.7-19.2-34.7-27.2v218.3h-21.7V443c-9.8-4.3-20.4-7.5-32.6-9.3l0.1-43.8c54.7 6 87.5 34.1 117.2 59.6 31.5 27 58.7 50.3 110.8 50.3 13.1 0 26.2-1.7 39.1-5l7.5 42.5zM729.9 499.5c86.9-58.9 152.2-169.7 152.2-282.1h-43.4c0 94.8-55.4 190.9-128 242.9l19.4 39.5M320.5 434.4c-3 0.4-5.9 1-8.8 1.6-78.5 17.7-126.2 115.5-126.7 116.6l-39.2-18.8c2.4-5.1 59.4-121.8 161.4-141.2 2.4-0.5 4.8-0.9 7.2-1.2l6.1 43z" fill="#4B5E6D" p-id="12298"></path><path d="M328.3 465H350v208.5h-21.7zM675.8 551.9h21.7v121.6h-21.7z" fill="#4B5E6D" p-id="12299"></path><path d="M339.2 478c-35.9 0-65.2-29.2-65.2-65.2s29.2-65.2 65.2-65.2 65.2 29.2 65.2 65.2-29.3 65.2-65.2 65.2z m0-86.9c-12 0-21.7 9.7-21.7 21.7s9.7 21.7 21.7 21.7 21.7-9.7 21.7-21.7-9.7-21.7-21.7-21.7z" fill="#FF8D0A" p-id="12300"></path><path d="M686.7 434.6c-35.9 0-65.2 29.2-65.2 65.2s29.2 65.2 65.2 65.2c35.9 0 65.2-29.2 65.2-65.2s-29.3-65.2-65.2-65.2z m0 86.8c-12 0-21.7-9.7-21.7-21.7s9.7-21.7 21.7-21.7 21.7 9.7 21.7 21.7-9.7 21.7-21.7 21.7z" fill="#FF8D0A" p-id="12301"></path></svg>