<?xml version="1.0" standalone="no"?><!DOCTYPE svg PUBLIC "-//W3C//DTD SVG 1.1//EN" "http://www.w3.org/Graphics/SVG/1.1/DTD/svg11.dtd"><svg t="1715933925935" class="icon" viewBox="0 0 1024 1024" version="1.1" xmlns="http://www.w3.org/2000/svg" p-id="50729" xmlns:xlink="http://www.w3.org/1999/xlink" width="32" height="32"><path d="M877.714286 73.142857h-146.285715V36.571429a36.571429 36.571429 0 1 0-73.142857 0V73.142857H329.142857V36.571429a36.571429 36.571429 0 1 0-73.142857 0V73.142857H146.285714a146.285714 146.285714 0 0 0-146.285714 146.285714v658.285715a146.285714 146.285714 0 0 0 146.285714 146.285714h731.428572a146.285714 146.285714 0 0 0 146.285714-146.285714V219.428571a146.285714 146.285714 0 0 0-146.285714-146.285714zM256 146.285714v36.571429a36.571429 36.571429 0 0 0 73.142857 0V146.285714H658.285714v36.571429a36.571429 36.571429 0 1 0 73.142857 0V146.285714z" fill="#EDA80E" p-id="50730"></path><path d="M725.333333 368.688762a28.501333 28.501333 0 0 0-4.071619-12.995048 35.181714 35.181714 0 0 0-4.36419-6.436571 39.326476 39.326476 0 0 0-4.876191-4.291048c-1.365333-0.999619-2.218667-2.438095-3.705904-3.218285-0.707048-0.365714-1.487238-0.365714-2.145524-0.707048a40.69181 40.69181 0 0 0-6.485334-2.145524 34.133333 34.133333 0 0 0-7.143619-1.438476c-0.707048 0-1.365333-0.438857-2.072381-0.438857H333.482667a35.693714 35.693714 0 1 0 0 71.411809H628.297143l-218.624 375.466667a35.206095 35.206095 0 0 0 13.141333 48.347429 35.913143 35.913143 0 0 0 48.761905-12.995048l249.904762-429.104762c0.219429-0.365714 0.219429-0.853333 0.438857-1.219048a35.669333 35.669333 0 0 0 2.633143-7.777523 33.401905 33.401905 0 0 0 1.29219-6.363429 19.504762 19.504762 0 0 1 0.292572-1.999238 27.599238 27.599238 0 0 0-0.804572-4.096z" fill="#FFFFFF" p-id="50731"></path></svg>