<?xml version="1.0" standalone="no"?><!DOCTYPE svg PUBLIC "-//W3C//DTD SVG 1.1//EN" "http://www.w3.org/Graphics/SVG/1.1/DTD/svg11.dtd"><svg t="1715916457725" class="icon" viewBox="0 0 1024 1024" version="1.1" xmlns="http://www.w3.org/2000/svg" p-id="36281" xmlns:xlink="http://www.w3.org/1999/xlink" width="32" height="32"><path d="M923.500075 878.440833l-12.857842 38.572504L805.816792 812.187897c-24.976858 17.404392-55.287187 27.679409-88.038102 27.679409-85.21173 0-154.291039-69.078285-154.291039-154.291039s69.078285-154.291039 154.291039-154.291039 154.291039 69.078285 154.291039 154.291039c0 39.331797-14.839986 75.111698-39.068807 102.364389L923.500075 878.440833zM833.409221 685.577291c0-63.860447-51.770084-115.630531-115.630531-115.630531S602.14816 621.715821 602.14816 685.577291s51.770084 115.630531 115.630531 115.630531S833.409221 749.437737 833.409221 685.577291zM512.057305 544.144094l-45.001937 0 45.001937 38.572504-51.430346 38.572504 51.430346 180.0057-90.00285 51.430346-90.00285-51.430346 51.430346-180.0057-51.430346-38.572504 44.998867-38.572504-44.998867 0c-106.642832 0.134053-192.863543 60.039421-192.863543 154.291039l0 167.147858 90.00285 0L229.190913 672.719448l38.572504 0 0 192.863543 437.157431 0 0-0.87902c6.351662 0.550539 12.774955 0.87902 19.286252 0.87902 6.541997 0 12.999059-0.329505 19.379373-0.88516l0.020466 39.369659-643.107013 0 0.115634-218.491223c0-108.967784 103.7172-180.0057 231.436046-180.0057l180.0057 0c43.265386 0 83.664491 7.235798 118.353548 21.201881-14.912641 7.203052-28.569686 16.167215-40.912805 26.419719C548.382629 542.055526 512.057305 544.144094 512.057305 544.144094zM370.624109 582.716598l38.572504 25.714661-38.572504 180.0057 51.430346 25.714661 51.430346-25.714661-38.572504-180.0057 38.572504-25.714661-51.430346-38.572504L370.624109 582.716598zM422.054455 492.713748c-106.514919 0-192.863543-86.348624-192.863543-192.863543 0-106.516965 86.348624-192.863543 192.863543-192.863543s192.863543 86.346577 192.863543 192.863543C614.917998 406.365124 528.569374 492.713748 422.054455 492.713748zM422.054455 145.559167c-85.21173 0-154.291039 69.078285-154.291039 154.291039s69.078285 154.291039 154.291039 154.291039 154.291039-69.078285 154.291039-154.291039S507.267209 145.559167 422.054455 145.559167z" fill="#272636" p-id="36282"></path></svg>