<?xml version="1.0" standalone="no"?><!DOCTYPE svg PUBLIC "-//W3C//DTD SVG 1.1//EN" "http://www.w3.org/Graphics/SVG/1.1/DTD/svg11.dtd"><svg t="1716172599377" class="icon" viewBox="0 0 1024 1024" version="1.1" xmlns="http://www.w3.org/2000/svg" p-id="3477" xmlns:xlink="http://www.w3.org/1999/xlink" width="32" height="32"><path d="M614.4 0h-66.56v168.96h66.56V0z m138.24 0h-66.56v168.96h66.56V0z m-409.6 0h-71.68v168.96h66.56L343.04 0z m133.12 0H409.6v168.96h66.56V0zM199.68 0h-61.44v168.96h66.56L199.68 0z m757.76 66.56V204.8H66.56V66.56L0 148.48v803.84L71.68 1024h880.64l71.68-71.68V148.48l-66.56-81.92z m0 890.88H66.56V271.36h885.76l5.12 686.08zM885.76 0H819.2v168.96h66.56V0zM496.64 844.8l-15.36-20.48L512 768l-25.6-25.6c-5.12-5.12-5.12-15.36 0-25.6h76.8c5.12 5.12 5.12 15.36 0 25.6L537.6 768l30.72 56.32-10.24 20.48c107.52-5.12 184.32-40.96 184.32-81.92 0-66.56-61.44-81.92-143.36-81.92-10.24-15.36-20.48-35.84-20.48-56.32 30.72-20.48 51.2-51.2 61.44-92.16 5.12 5.12 5.12 5.12 10.24 5.12 10.24 0 15.36-5.12 15.36-15.36v-40.96c0-10.24-5.12-15.36-15.36-15.36h-5.12c-5.12-76.8-56.32-138.24-117.76-138.24-61.44 0-107.52 61.44-117.76 138.24-10.24 0-15.36 5.12-15.36 15.36v35.84c0 10.24 5.12 15.36 15.36 15.36h5.12c10.24 35.84 25.6 61.44 46.08 81.92 5.12 20.48-5.12 46.08-15.36 61.44-81.92 0-138.24 20.48-138.24 81.92 5.12 46.08 87.04 81.92 189.44 87.04z m0 0" fill="" p-id="3478"></path></svg>