<?xml version="1.0" standalone="no"?><!DOCTYPE svg PUBLIC "-//W3C//DTD SVG 1.1//EN" "http://www.w3.org/Graphics/SVG/1.1/DTD/svg11.dtd"><svg t="1716172684516" class="icon" viewBox="0 0 1024 1024" version="1.1" xmlns="http://www.w3.org/2000/svg" p-id="4644" xmlns:xlink="http://www.w3.org/1999/xlink" width="32" height="32"><path d="M551.9 656.2c11.9 0 21.7-9.7 21.7-21.7V473.3c0-11.9-9.7-21.7-21.7-21.7h-79.8c-12 0-21.7 9.7-21.7 21.7v161.1c0 12 9.7 21.7 21.7 21.7h79.8z" fill="#3E3A39" p-id="4645"></path><path d="M901.2 292.2H784.3v-83c0-54.6-44.5-99.1-99.1-99.1H338.8c-54.6 0-99.1 44.5-99.1 99.1v83H122.8c-32.2 0-58.3 26.1-58.3 58.3v131h336.6c2.7-40.6 36.3-73 77.7-73h66.6c41.9 0 75.9 33.2 77.8 74.7v-1.7h336.4v-131c-0.1-32.2-26.2-58.3-58.4-58.3z m-605.5 0v-83c0-23.7 19.3-43.1 43.1-43.1h346.4c23.7 0 43.1 19.3 43.1 43.1v83H295.7zM623.5 621.1c0 43.1-35.1 78.2-78.2 78.2h-66.6c-43.1 0-78.2-35.1-78.2-78.2v-85.4l-336 0.2v319.7c0 32.2 26.1 58.3 58.3 58.3h778.4c32.2 0 58.3-26.1 58.3-58.3V535.7h-336v85.4z" fill="#3E3A39" p-id="4646"></path></svg>