<?xml version="1.0" standalone="no"?><!DOCTYPE svg PUBLIC "-//W3C//DTD SVG 1.1//EN" "http://www.w3.org/Graphics/SVG/1.1/DTD/svg11.dtd"><svg t="1715911013852" class="icon" viewBox="0 0 1024 1024" version="1.1" xmlns="http://www.w3.org/2000/svg" p-id="2331" xmlns:xlink="http://www.w3.org/1999/xlink" width="32" height="32"><path d="M889.89 101.42h-728A61.67 61.67 0 0 0 100.32 163v569.92a61.67 61.67 0 0 0 61.6 61.61h728a61.67 61.67 0 0 0 61.6-61.61V163a61.67 61.67 0 0 0-61.63-61.58z m20.53 631.5a20.56 20.56 0 0 1-20.53 20.54h-728a20.56 20.56 0 0 1-20.53-20.54V163a20.56 20.56 0 0 1 20.53-20.54h728A20.56 20.56 0 0 1 910.42 163zM776.2 857.89H275.61a20.54 20.54 0 0 0 0 41.07H776.2a20.54 20.54 0 1 0 0-41.07z" fill="#231815" p-id="2332"></path><path d="M749.18 474.07A204.5 204.5 0 0 0 751 448c0-84.06-50.56-156.41-122.79-188.6 0-0.28 0.08-0.54 0.08-0.83a77.71 77.71 0 0 0-77.62-77.63c-41.36 0-75 32.61-77.19 73.42-78.92 29-135.46 104.76-135.46 193.64a205.94 205.94 0 0 0 2.06 27.6 77.45 77.45 0 0 0 76.21 134 205.52 205.52 0 0 0 257.33-0.68 76.74 76.74 0 0 0 32.41 7.32 77.58 77.58 0 0 0 43.12-142.1zM549.59 229.3a29.27 29.27 0 1 1-29.27 29.26 29.26 29.26 0 0 1 29.27-29.26zM387.41 567.68a29.26 29.26 0 1 1 29.27-29.25 29.27 29.27 0 0 1-29.27 29.25z m241-29.13a77.1 77.1 0 0 0 13.13 43.1 164.25 164.25 0 0 1-192.68 1 77.48 77.48 0 0 0-63.73-121.76c-1.83 0-3.55 0.42-5.35 0.54-0.36-4.46-0.68-8.94-0.68-13.49 0-69.26 42.81-128.62 103.33-153.23 13.07 24.51 38.6 41.43 68.25 41.43a77.39 77.39 0 0 0 65.79-36.92C671.71 326.08 710 382.57 710 448c0 4.48-0.32 8.88-0.68 13.28-1.1-0.05-2.12-0.33-3.22-0.33a77.71 77.71 0 0 0-77.67 77.6z m79.38 28.15a29.27 29.27 0 1 1 29.27-29.27 29.26 29.26 0 0 1-29.25 29.27z" fill="#231815" p-id="2333"></path></svg>