<?xml version="1.0" standalone="no"?><!DOCTYPE svg PUBLIC "-//W3C//DTD SVG 1.1//EN" "http://www.w3.org/Graphics/SVG/1.1/DTD/svg11.dtd"><svg t="1715914744509" class="icon" viewBox="0 0 1024 1024" version="1.1" xmlns="http://www.w3.org/2000/svg" p-id="23908" xmlns:xlink="http://www.w3.org/1999/xlink" width="32" height="32"><path d="M512 959.7c-60.4 0-119.1-11.8-174.3-35.2-53.3-22.5-101.2-54.8-142.3-95.9s-73.4-89-95.9-142.3C76.2 631.1 64.3 572.4 64.3 512s11.8-119.1 35.2-174.3c22.5-53.3 54.8-101.2 95.9-142.3s89-73.4 142.3-95.9C392.9 76.2 451.6 64.3 512 64.3s119.1 11.8 174.3 35.2c53.3 22.5 101.2 54.8 142.3 95.9s73.4 89 95.9 142.3c23.3 55.2 35.2 113.8 35.2 174.3s-11.8 119.1-35.2 174.3c-22.5 53.3-54.8 101.2-95.9 142.3s-89 73.4-142.3 95.9c-55.2 23.3-113.9 35.2-174.3 35.2z m0-865.4C281.7 94.3 94.3 281.7 94.3 512S281.7 929.7 512 929.7 929.7 742.3 929.7 512 742.3 94.3 512 94.3z" p-id="23909"></path><path d="M483.1 476.9c105.7 86.3 150.6 73 150.6 73 56.7-3.6 128.2-106.8 128.2-106.8V312.4c0.5 8.7-64.9 89.4-64.9 89.4-64.9 91.9-157.3-3.6-157.3-3.6-81.7-92.4-138.4-77.1-138.4-77.1-61.3-1-133.8 122-133.8 122v130.6l85.3-103.6c60.3-73.4 130.3 6.8 130.3 6.8zM260.3 659.9h503.5v51.7H260.3z" fill="#110401" p-id="23910"></path></svg>