<?xml version="1.0" standalone="no"?><!DOCTYPE svg PUBLIC "-//W3C//DTD SVG 1.1//EN" "http://www.w3.org/Graphics/SVG/1.1/DTD/svg11.dtd"><svg t="1715910163245" class="icon" viewBox="0 0 1024 1024" version="1.1" xmlns="http://www.w3.org/2000/svg" p-id="4435" xmlns:xlink="http://www.w3.org/1999/xlink" width="32" height="32"><path d="M829.668978 237.77678C803.971487 211.979299 774.974319 190.081437 743.477395 172.483156 675.983986 130.587247 592.992091 112.589005 509.600234 121.788107c-8.69915 0.599941-17.398301 1.399863-26.097451 2.499756 59.894151-40.196075 128.387462-62.893858 198.980568-65.093644 10.998926-0.299971 20.098037-8.69915 21.397911-19.598086 1.299873-10.898936-5.599453-21.19793-16.198419-24.097647-159.184455-43.895713-336.267161 7.199297-462.054877 133.087004-89.0913 88.991309-141.586173 204.08007-147.785568 324.068352-6.199395 120.888195 35.096573 232.177326 116.388634 313.469388 25.69749 25.69749 54.694659 47.695342 86.291573 65.293624 67.293428 41.795918 150.285324 59.794161 233.877161 50.795039 8.69915-0.599941 17.398301-1.399863 26.097451-2.499756-59.894151 40.196075-128.387462 62.893858-198.980568 65.093644-10.998926 0.299971-20.098037 8.69915-21.397911 19.598086-1.299873 10.898936 5.599453 21.19793 16.198419 24.097647 37.696319 10.398984 76.49253 15.498486 115.288741 15.498486 124.987794 0 250.77551-52.494874 346.766136-148.58549 89.0913-88.991309 141.486183-204.08007 147.685578-324.068352 6.299385-120.988185-34.996582-232.277317-116.388634-313.569378z m71.992969 311.169612c-5.599453 108.989357-53.494776 213.679133-134.786837 294.871204-78.092374 78.192364-177.482668 124.687823-278.372815 133.886925 53.294795-21.997852 102.889952-55.09462 145.785763-97.990431 1.999805-1.999805 4.19959-4.19959 6.199394-6.399375 6.999316-7.399277 8.099209-18.598184 2.599747-27.197344-4.19959-6.599356-11.298897-10.298994-18.798165-10.298994-2.299775 0-4.599551 0.399961-6.899326 1.099893-34.696612 11.398887-70.493116 18.398203-106.38961 20.797969-0.299971 0-0.599941 0-0.899912 0.09999-75.192657 8.199199-146.485695-7.199297-206.379846-44.495655-0.299971-0.19998-0.599941-0.399961-0.999903-0.599941-28.097256-15.598477-53.994727-35.196563-76.892491-58.094327-72.29294-72.29294-108.989357-171.683234-103.489893-279.772678C127.937506 365.964261 175.832829 261.274485 257.0249 179.982424c78.092374-78.092374 177.482668-124.687823 278.372815-133.886926-53.294795 21.997852-102.689972 54.994629-145.485792 97.790451l-0.399961 0.399961c-0.799922 0.899912-1.699834 1.699834-2.599746 2.599746-1.199883 1.199883-2.299775 2.299775-3.399668 3.499658-6.999316 7.399277-8.099209 18.598184-2.599747 27.197344 5.499463 8.59916 16.098428 12.398789 25.697491 9.199102 34.696612-11.398887 70.493116-18.398203 106.38961-20.797969 0.299971 0 0.599941 0 0.999903-0.099991 73.892784-8.199199 147.185626 7.599258 206.379845 44.495655 0.299971 0.19998 0.599941 0.399961 0.999903 0.599942 28.097256 15.598477 53.994727 35.096573 76.892491 58.094326 72.29294 72.39293 108.989357 171.783224 103.389903 279.872669z" fill="" p-id="4436"></path><path d="M377.713114 377.563129c-73.992774 73.992774-73.992774 194.481008 0 268.673762 36.996387 36.996387 85.591641 55.494581 134.286886 55.494581 48.595254 0 97.290499-18.498194 134.386876-55.494581 73.992774-73.992774 73.992774-194.481008 0-268.673762-74.092764-73.892784-194.580998-73.892784-268.673762 0z m237.176838 237.176838c-56.794454 56.694463-149.085441 56.694463-205.679914 0-56.694463-56.794454-56.694463-149.085441 0-205.679914 56.794454-56.694463 149.085441-56.694463 205.679914 0 56.594473 56.794454 56.594473 149.085441 0 205.679914z" fill="" p-id="4437"></path></svg>