<?xml version="1.0" standalone="no"?><!DOCTYPE svg PUBLIC "-//W3C//DTD SVG 1.1//EN" "http://www.w3.org/Graphics/SVG/1.1/DTD/svg11.dtd"><svg t="1715910833308" class="icon" viewBox="0 0 1024 1024" version="1.1" xmlns="http://www.w3.org/2000/svg" p-id="15142" xmlns:xlink="http://www.w3.org/1999/xlink" width="32" height="32"><path d="M947.2 768H76.8c-42.496 0-76.8-34.304-76.8-76.8V179.2c0-42.496 34.304-76.8 76.8-76.8h870.4c42.496 0 76.8 34.304 76.8 76.8v512c0 42.496-34.304 76.8-76.8 76.8zM76.8 153.6c-14.336 0-25.6 11.264-25.6 25.6v512c0 14.336 11.264 25.6 25.6 25.6h870.4c14.336 0 25.6-11.264 25.6-25.6V179.2c0-14.336-11.264-25.6-25.6-25.6H76.8zM716.8 921.6H307.2c-14.336 0-25.6-11.264-25.6-25.6s11.264-25.6 25.6-25.6h409.6c14.336 0 25.6 11.264 25.6 25.6s-11.264 25.6-25.6 25.6z" fill="" p-id="15143"></path><path d="M998.4 345.6H25.6c-7.168 0-12.8-5.632-12.8-12.8s5.632-12.8 12.8-12.8h972.8c7.168 0 12.8 5.632 12.8 12.8s-5.632 12.8-12.8 12.8zM998.4 550.4H25.6c-7.168 0-12.8-5.632-12.8-12.8s5.632-12.8 12.8-12.8h972.8c7.168 0 12.8 5.632 12.8 12.8s-5.632 12.8-12.8 12.8z" fill="" p-id="15144"></path><path d="M665.6 755.2c-7.168 0-12.8-5.632-12.8-12.8V128c0-7.168 5.632-12.8 12.8-12.8s12.8 5.632 12.8 12.8v614.4c0 7.168-5.632 12.8-12.8 12.8zM358.4 755.2c-7.168 0-12.8-5.632-12.8-12.8V128c0-7.168 5.632-12.8 12.8-12.8s12.8 5.632 12.8 12.8v614.4c0 7.168-5.632 12.8-12.8 12.8z" fill="" p-id="15145"></path></svg>