<?xml version="1.0" standalone="no"?><!DOCTYPE svg PUBLIC "-//W3C//DTD SVG 1.1//EN" "http://www.w3.org/Graphics/SVG/1.1/DTD/svg11.dtd"><svg t="1715910042765" class="icon" viewBox="0 0 1024 1024" version="1.1" xmlns="http://www.w3.org/2000/svg" p-id="2983" xmlns:xlink="http://www.w3.org/1999/xlink" width="32" height="32"><path d="M572 698.4c-8.8 0-16-5.6-18.4-12.8l-112-304.8-53.6 136c-3.2 8-10.4 12.8-18.4 12.8H226.4c-11.2 0-20-8.8-20-20s8.8-20 20-20h129.6L424 316.8c3.2-8 10.4-12.8 19.2-12.8 8 0 16 5.6 18.4 12.8l112 307.2 53.6-123.2c3.2-7.2 10.4-12 18.4-12H800c11.2 0 20 8.8 20 20s-8.8 20-20 20H658.4l-68 157.6c-3.2 7.2-10.4 12-18.4 12z" p-id="2984"></path><path d="M516.8 1016l-8-3.2c-16-6.4-389.6-168-398.4-420-8-240 0-455.2 0-456.8v-9.6l36.8-26.4c118.4-60.8 244-91.2 376-91.2 122.4 0 240.8 26.4 351.2 78.4l2.4 0.8 46.4 37.6v8.8c0 2.4 8 216.8 0 456.8-8.8 252-382.4 413.6-398.4 420l-8 4.8zM150.4 146.4c-1.6 44.8-6.4 234.4 0 444.8 7.2 208 312.8 356.8 365.6 381.6 52.8-24 359.2-173.6 366.4-381.6 7.2-211.2 1.6-402.4 0-445.6l-28-23.2c-104.8-48.8-216-73.6-332-73.6-124 0-243.2 28.8-354.4 84.8l-17.6 12.8z" p-id="2985"></path></svg>