<?xml version="1.0" standalone="no"?><!DOCTYPE svg PUBLIC "-//W3C//DTD SVG 1.1//EN" "http://www.w3.org/Graphics/SVG/1.1/DTD/svg11.dtd"><svg t="1715926597500" class="icon" viewBox="0 0 1024 1024" version="1.1" xmlns="http://www.w3.org/2000/svg" p-id="42113" xmlns:xlink="http://www.w3.org/1999/xlink" width="32" height="32"><path d="M960.352 327.072L818.72 240l13.632-25.216c18.272-32.576 42.912-40.128 74.56-21.408l47.2 29.056c31.616 18.72 38.144 46.88 19.904 79.424l-13.664 25.216z m-185.024-170.464c0-22.944-38.72-63.04-60.768-63.04H106.848c-22.016 0-60.768 40.064-60.768 63.04v724.768c0 22.944 38.72 63.04 60.768 63.04H714.56c22.048 0 60.768-40.096 60.768-63.04v-77.408l40.512-70.176v160.896c0 43.872-45.76 90.208-87.712 90.208H81.632c-42.016 0-76.032-35.488-76.032-79.296V152.032c0-43.84 44.768-98.976 86.752-98.976h636.704c32.992 0 66.336 0.672 80.096 44.512L775.328 158.4v-1.792z m171.392 195.68l-218.688 403.36-141.632-87.072 218.624-403.392 141.696 87.104zM127.104 504.544c0-1.536 0.608-3.008 1.696-4.128a5.92 5.92 0 0 1 4.096-1.696h453.312l-44.992 81.056H132.896a5.76 5.76 0 0 1-5.792-5.792v-69.44z m0 162.048a5.76 5.76 0 0 1 5.792-5.76h363.36L451.2 741.824H132.896a5.632 5.632 0 0 1-4.096-1.728 5.568 5.568 0 0 1-1.696-4.064v-69.44z m5.792 196.8c-3.232 0-5.792-1.312-5.792-2.912v-34.752c0-1.6 2.592-2.912 5.792-2.912h415.488l26.56 22.112-2.176-151.296 142.112 87.392-126.912 74.72 9.12 7.584H132.896v0.064z m474.56-607.744H132.896a5.792 5.792 0 0 1-5.792-5.824v-69.44a5.76 5.76 0 0 1 5.792-5.792h474.56a5.76 5.76 0 0 1 5.824 5.792v69.44a5.792 5.792 0 0 1-5.824 5.824z m5.824 156.32a5.76 5.76 0 0 1-5.824 5.76H132.896a5.76 5.76 0 0 1-5.792-5.76v-69.536a5.76 5.76 0 0 1 5.792-5.728h474.56a5.76 5.76 0 0 1 5.824 5.728v69.536z m405.12-16.064l-109.376 201.792-47.392-29.088 109.472-201.888 47.296 29.184z" p-id="42114"></path></svg>