<?xml version="1.0" standalone="no"?><!DOCTYPE svg PUBLIC "-//W3C//DTD SVG 1.1//EN" "http://www.w3.org/Graphics/SVG/1.1/DTD/svg11.dtd"><svg t="1715911133490" class="icon" viewBox="0 0 1024 1024" version="1.1" xmlns="http://www.w3.org/2000/svg" p-id="6810" xmlns:xlink="http://www.w3.org/1999/xlink" width="32" height="32"><path d="M832 96A53.333333 53.333333 0 0 1 885.333333 149.333333v746.666667a53.333333 53.333333 0 0 1-53.333333 53.333333H213.333333A53.333333 53.333333 0 0 1 160 896V149.333333A53.333333 53.333333 0 0 1 213.333333 96h618.666667z m-10.666667 64h-597.333333v725.333333h597.333333v-725.333333z" fill="#AEAEAE" p-id="6811"></path><path d="M576 437.333333a138.666667 138.666667 0 1 1 0 277.333334 138.666667 138.666667 0 0 1 0-277.333334z m0 64a74.666667 74.666667 0 1 0 0 149.333334 74.666667 74.666667 0 0 0 0-149.333334z" fill="#AEAEAE" p-id="6812"></path><path d="M661.866667 661.866667a32 32 0 0 1 45.248 0l60.352 60.352a32 32 0 1 1-45.248 45.226666l-60.352-60.330666a32 32 0 0 1 0-45.226667zM298.666667 288a32 32 0 0 1 32-32h277.333333a32 32 0 0 1 0 64h-277.333333a32 32 0 0 1-32-32zM298.666667 405.333333a32 32 0 0 1 32-32h128a32 32 0 0 1 0 64h-128A32 32 0 0 1 298.666667 405.333333z" fill="#AEAEAE" p-id="6813"></path></svg>