<?xml version="1.0" standalone="no"?><!DOCTYPE svg PUBLIC "-//W3C//DTD SVG 1.1//EN" "http://www.w3.org/Graphics/SVG/1.1/DTD/svg11.dtd"><svg t="1715918147590" class="icon" viewBox="0 0 1024 1024" version="1.1" xmlns="http://www.w3.org/2000/svg" p-id="41100" xmlns:xlink="http://www.w3.org/1999/xlink" width="32" height="32"><path d="M494.933333 573.44c10.24 6.826667 23.893333 6.826667 30.72 0l245.76-204.8c10.24-10.24 17.066667-23.893333 13.653334-40.96-3.413333-13.653333-13.653333-23.893333-27.306667-27.306667h-116.053333V68.266667h-259.413334v235.52H266.24c-13.653333 0-23.893333 10.24-27.306667 27.306666-3.413333 13.653333 0 30.72 10.24 40.96l245.76 201.386667zM440.32 375.466667V139.946667h143.36V375.466667h78.506667L512 501.76 361.813333 375.466667h78.506667z m262.826667 204.8c-10.24 0-17.066667 3.413333-23.893334 10.24-47.786667 40.96-105.813333 61.44-167.253333 58.026666-61.44 3.413333-119.466667-20.48-167.253333-58.026666-6.826667-6.826667-13.653333-10.24-23.893334-10.24H68.266667v68.266666h238.933333c58.026667 47.786667 129.706667 71.68 204.8 68.266667 75.093333 3.413333 146.773333-20.48 204.8-68.266667h238.933333v-68.266666h-252.586666z m51.2 150.186666c-47.786667 64.853333-139.946667 102.4-242.346667 102.4s-197.973333-40.96-245.76-102.4c-3.413333-10.24-17.066667-13.653333-27.306667-13.653333H68.266667v68.266667h157.013333c75.093333 78.506667 180.906667 119.466667 286.72 116.053333 109.226667 3.413333 211.626667-37.546667 286.72-116.053333H955.733333v-68.266667h-170.666666c-10.24 0-23.893333 3.413333-30.72 13.653333z" p-id="41101"></path></svg>