<?xml version="1.0" standalone="no"?><!DOCTYPE svg PUBLIC "-//W3C//DTD SVG 1.1//EN" "http://www.w3.org/Graphics/SVG/1.1/DTD/svg11.dtd"><svg t="1715914929383" class="icon" viewBox="0 0 1024 1024" version="1.1" xmlns="http://www.w3.org/2000/svg" p-id="29351" xmlns:xlink="http://www.w3.org/1999/xlink" width="32" height="32"><path d="M555.1 621.2c-16.9 0-33.2-5.2-47.1-14.9l-25.4-17.9c-3.7-2.4-7.9-3.7-12.3-3.7s-8.7 1.3-12.3 3.7l-33.1 23.4c-5.1 3.6-11.1 5.5-17.3 5.5-9.7 0-18.8-4.7-24.4-12.6-9.5-13.4-6.4-32.1 7.1-41.7l33-23.3c13.9-9.9 30.3-15.1 47.3-15.1 16.9 0 33.1 5.1 46.9 14.8l25.4 17.9c3.7 2.4 7.9 3.7 12.3 3.7s8.7-1.3 12.3-3.7l25.3-17.2 0.1-0.1c6.3-4.6 13.2-8.3 20.5-10.9 2.9-0.9 6-1.4 9-1.4 12.8 0 24.2 8.2 28.3 20.3 5.2 15.3-2.9 32.3-18.1 37.8-1.6 0.5-3.4 1.4-5.1 2.6l-25.4 17.9c-13.8 9.8-30 14.9-47 14.9z" p-id="29352"></path><path d="M511.2 931c-100.2 0-201.3-7.7-300.3-23-50.8-9.4-87.1-20.5-111-34.2-22.7-13-34.3-28.3-35.4-46.8V363.2c0-39.3 45.2-65.2 146.7-83.8 36-6.5 76.5-11.7 120.3-15.5-12.3 20.2-24.7 41.6-36.9 63.8-51.2 4.7-101.6 15.1-149.9 30.8l-13.6 4.4 13.3 5.1c16.5 6.4 66.3 22.3 171.7 33.1l3.4 0.3 1.6-3c49.5-93.6 106.1-184.4 168.3-269.8l24.1-33.1 24.1 33.1c62.1 85.2 118.7 175.8 168 269.1l1.6 3 3.4-0.4c74.3-8.2 135.6-20.1 168.1-32.7l13.3-5.1-13.6-4.4c-47.5-15.4-96.6-25.6-146.2-30.3-11.5-20.9-23.9-42.4-37-63.9 43.5 3.9 82.6 9 116.5 15.2 51.9 9.4 88.7 20.9 112.7 35 21.9 12.9 32.9 28.1 33.8 46.5l-0.4 0.3v465.7c-1.1 18.6-12.7 33.9-35.4 46.9-23.9 13.6-60.2 24.8-110.9 34.2-99 15.5-200.1 23.3-300.3 23.3zM310.7 787.4c-73 7.7-133.3 19.4-166.7 32.5l-12 4.7 12 4.7c49.9 19.5 176 42.2 367.5 42.2 190.3 0 316.9-22.8 367.5-42.2l12.2-4.7-12.2-4.7c-32.6-12.7-93-24.6-163.1-32.2 18-16.2 34-34.5 47.7-54.5 16 2.2 32.3 4.7 48.4 7.6 26.6 4.5 53.5 11.4 80.1 20.3l6.7 2.3v-339l-6.7 2.3c-25.8 8.8-52.7 15.7-80 20.3-21 3.9-45.1 7.5-71.7 10.6l-6.8 0.8 2.8 6.3c13.9 31.1 22 64.2 24 98.3-0.1 136-110.7 246.6-246.7 246.6S267.2 699 267.1 563.1c2.2-34.1 10.2-67 23.9-97.9l2.8-6.3-6.8-0.8c-30.5-3.6-54.4-7.1-75.3-11-26.8-4.5-53.7-11.4-80.2-20.4l-6.7-2.3V764l6.7-2.3c26.1-8.9 53-15.7 80.1-20.3 15.2-2.8 32.1-5.4 51.8-8.1 13.5 19.8 29.4 37.9 47.3 54.1z m43.6-319.8c-18.6 42.4-27.7 73.5-27.7 95.3 0 103 83.8 186.9 186.9 186.9S700.3 666 700.3 562.9v-0.1c0-21.6-9.4-53.7-27.8-95.4l-1.4-3.3-3.5 0.3c-50 3.6-103.9 5.5-155.9 5.5-51.7 0-103-1.8-152.3-5.3l-3.6-0.3-1.5 3.3z m155-263.7c-43.8 63-84.6 128.8-121.2 195.6l-3.9 7 8 0.5c37.9 2.2 76.9 3.2 119.4 3.2 41.4 0 82.8-1.2 123-3.5l8-0.5-3.9-7c-36.7-66.8-77.4-132.5-121.1-195.3l-4.2-6-4.1 6z" p-id="29353"></path></svg>