<?xml version="1.0" standalone="no"?><!DOCTYPE svg PUBLIC "-//W3C//DTD SVG 1.1//EN" "http://www.w3.org/Graphics/SVG/1.1/DTD/svg11.dtd"><svg t="1715933697390" class="icon" viewBox="0 0 1024 1024" version="1.1" xmlns="http://www.w3.org/2000/svg" p-id="46066" xmlns:xlink="http://www.w3.org/1999/xlink" width="32" height="32"><path d="M128 832c0 17.688 14.312 32 32 32h352a64 64 0 0 1-64 64v64c70.688 0 128-57.312 128-128v-64H160a32 32 0 0 0-32 32zM640 32C472.448 32 330.056 139.344 277.608 288.976A257.2 257.2 0 0 0 256 288C114.624 288 0 402.624 0 544h64c0-106.032 85.968-192 192-192 24.024 0 46.976 4.496 68.168 12.56C348.792 212.304 480.8 96 640 96c176.752 0 320 143.28 320 320s-143.248 320-320 320v64c212.064 0 384-171.936 384-384S852.064 32 640 32zM64 576c0 17.688 14.312 32 32 32h544v-64c0-106.032-85.968-192-192-192v64c70.688 0 128 57.312 128 128H96a32 32 0 0 0-32 32z m480 96H96a32 32 0 0 0 0 64h448a32 32 0 0 0 0-64z" fill="#2F2F2F" p-id="46067"></path></svg>