<?xml version="1.0" standalone="no"?><!DOCTYPE svg PUBLIC "-//W3C//DTD SVG 1.1//EN" "http://www.w3.org/Graphics/SVG/1.1/DTD/svg11.dtd"><svg t="1715933804203" class="icon" viewBox="0 0 1024 1024" version="1.1" xmlns="http://www.w3.org/2000/svg" p-id="49076" xmlns:xlink="http://www.w3.org/1999/xlink" width="32" height="32"><path d="M670.90432 403.21024a190.42304 190.42304 0 0 1 33.6896 108.68736 190.6688 190.6688 0 0 1-56.19712 135.70048 190.68928 190.68928 0 0 1-135.70048 56.19712 190.68928 190.68928 0 0 1-135.70048-56.19712 190.6688 190.6688 0 0 1-56.19712-135.70048c0-51.3024 20.00896-99.49184 56.19712-135.70048a190.6688 190.6688 0 0 1 119.9104-55.6032l-5.12-63.7952c-131.584 10.60864-234.98752 120.81152-234.98752 255.09888 0 141.312 114.60608 255.8976 255.8976 255.8976 141.312 0 255.8976-114.5856 255.8976-255.8976 0-53.80096-16.5888-103.58784-44.89216-144.7936l-52.79744 36.10624z" fill="#333333" p-id="49077"></path><path d="M512.1024 65.29024v414.9248a31.9488 31.9488 0 0 0-32.01024 31.98976 31.9488 31.9488 0 0 0 32.01024 31.98976 31.9488 31.9488 0 0 0 24.7808-52.20352L859.32032 230.8096l0.4096-0.4096c0.08192 0 0.08192-0.1024 0.2048-0.1024-81.92-101.29408-207.11424-166.0928-347.50464-166.0928h-0.3072v1.08544z" fill="#333333" p-id="49078"></path><path d="M881.39776 258.99008l-0.4096 0.4096c-0.08192 0-0.08192 0.1024-0.2048 0.1024l-52.08064 35.79904a379.94496 379.94496 0 0 1 36.49536 66.90816 379.63776 379.63776 0 0 1 30.1056 148.992 379.2896 379.2896 0 0 1-30.1056 148.992 380.55936 380.55936 0 0 1-82.10432 121.71264 382.81216 382.81216 0 0 1-121.69216 82.10432 379.63776 379.63776 0 0 1-148.992 30.1056 379.2896 379.2896 0 0 1-149.01248-30.1056 380.60032 380.60032 0 0 1-121.69216-82.1248 382.79168 382.79168 0 0 1-82.10432-121.69216 379.65824 379.65824 0 0 1-30.1056-148.992c0-51.69152 10.09664-101.90848 30.1056-148.992a380.6208 380.6208 0 0 1 82.10432-121.71264 382.79168 382.79168 0 0 1 121.69216-82.10432 378.42944 378.42944 0 0 1 118.39488-28.8768l-4.99712-62.70976-0.1024-1.10592c-230.1952 18.10432-411.29984 210.59584-411.29984 445.50144 0 246.784 200.0896 446.99648 447.01696 446.99648 246.8864 0 446.99648-200.0896 446.99648-446.99648a445.27616 445.27616 0 0 0-78.00832-252.2112z" fill="#333333" p-id="49079"></path></svg>