<?xml version="1.0" standalone="no"?><!DOCTYPE svg PUBLIC "-//W3C//DTD SVG 1.1//EN" "http://www.w3.org/Graphics/SVG/1.1/DTD/svg11.dtd"><svg t="1715909921846" class="icon" viewBox="0 0 1024 1024" version="1.1" xmlns="http://www.w3.org/2000/svg" p-id="2209" xmlns:xlink="http://www.w3.org/1999/xlink" width="32" height="32"><path d="M529.6 93.6c-8-7.2-19.2-7.2-24.8 0-66.4 62.4-340.8 334.4-340.8 500.8 0 192.8 157.6 349.6 352 349.6s352-156.8 352-349.6c1.6-166.4-272-438.4-338.4-500.8z m-13.6 788c-160 0-291.2-126.4-295.2-287.2C220.8 496 364 308.8 516 160c150.4 149.6 295.2 334.4 295.2 434.4-2.4 158.4-133.6 287.2-295.2 287.2z m222.4-287.2c-9.6 0-16.8 5.6-20.8 13.6-28.8 79.2-93.6 141.6-175.2 168-9.6 1.6-15.2 11.2-13.6 19.2 1.6 11.2 13.6 19.2 24.8 16.8 1.6 0 1.6 0 4-1.6 93.6-32 167.2-102.4 201.6-194.4 1.6-11.2-4-20.8-15.2-22.4 0 0.8-1.6 0.8-5.6 0.8z" p-id="2210"></path></svg>