<?xml version="1.0" standalone="no"?><!DOCTYPE svg PUBLIC "-//W3C//DTD SVG 1.1//EN" "http://www.w3.org/Graphics/SVG/1.1/DTD/svg11.dtd"><svg t="1715910219113" class="icon" viewBox="0 0 1024 1024" version="1.1" xmlns="http://www.w3.org/2000/svg" p-id="5525" xmlns:xlink="http://www.w3.org/1999/xlink" width="32" height="32"><path d="M393.925969 739.898328a85.3 85.3 0 1 0 65.285793-157.613848 85.3 85.3 0 1 0-65.285793 157.613848Z" p-id="5526"></path><path d="M511.9 405.3c-23.5 0-42.6 19.1-42.6 42.6 0 23.6 19.1 42.6 42.6 42.6 23.6 0 42.6-19.1 42.6-42.6s-19.1-42.6-42.6-42.6z" p-id="5527"></path><path d="M825.5 752.3c55.1-129.5 25.4-286.1-67.9-406.3C691.1 260.8 605 149 548.7 82.5c-9.3-11.3-23-18-37.5-18.3l-0.9 0.4c-14.7 0-28.6 6.6-37.9 17.9-57.1 67.8-141.1 180-204.6 263.5-123.7 162-134.7 368.8 0 508.6 97.5 102.5 248.4 133.4 378.3 77.6 51 40.2 124 35.8 169.8-10.1 45.8-45.9 49.9-118.9 9.6-169.8z m-74.6-45.9c-42.3-8.8-86.1 4.5-116.6 35.1-30.4 30.6-43.3 74.6-34.3 116.8-94.9 35.2-201.6 10.5-271.3-62.9-99.3-103.2-96.8-263.1 6.4-397.8l35.8-47.3c46.1-60.6 97.2-127.9 139.4-180v-0.4c52 63.5 119.8 151 175.6 223.5l3.4 4.7c65.2 84.9 98.4 205.4 61.6 308.3z" p-id="5528"></path><path d="M639.8 575.8c-23.5 0-42.6 19.1-42.6 42.6 0 23.6 19.1 42.6 42.6 42.6 23.6 0 42.6-19.1 42.6-42.6s-19-42.6-42.6-42.6z" p-id="5529"></path></svg>