<?xml version="1.0" standalone="no"?><!DOCTYPE svg PUBLIC "-//W3C//DTD SVG 1.1//EN" "http://www.w3.org/Graphics/SVG/1.1/DTD/svg11.dtd"><svg t="1715910313157" class="icon" viewBox="0 0 1024 1024" version="1.1" xmlns="http://www.w3.org/2000/svg" p-id="6655" xmlns:xlink="http://www.w3.org/1999/xlink" width="32" height="32"><path d="M851.072848 0H172.927152C118.675497 0 74.596026 44.07947 74.596026 98.331126V915.496689c0 57.642384 44.07947 101.721854 98.331126 101.721854h291.602649v-57.642384H172.927152c-23.735099 0-40.688742-16.953642-40.688741-40.688742V98.331126c0-23.735099 16.953642-40.688742 40.688741-40.688742h678.145696c23.735099 0 40.688742 16.953642 40.688741 40.688742v413.668874h57.642385V98.331126C949.403974 44.07947 905.324503 0 851.072848 0z" fill="#2c2c2c" p-id="6656"></path><path d="M206.834437 169.536424h610.331126v71.205298H206.834437zM620.503311 369.589404H206.834437v67.81457h413.668874v-67.81457zM206.834437 830.728477h210.225166v-67.81457H206.834437v67.81457zM206.834437 566.251656h186.490066v67.814569H206.834437zM915.496689 712.05298c-3.390728-6.781457-10.172185-13.562914-16.953643-20.344371L749.350993 498.437086l-152.582781 193.271523c-3.390728 3.390728-3.390728 6.781457-6.781457 10.172186l-10.172185 16.953642c-16.953642 30.516556-30.516556 64.423841-30.516557 105.112583 0 108.503311 88.15894 200.05298 200.05298 200.05298s200.05298-88.15894 200.052981-200.05298c0-37.298013-10.172185-74.596026-30.516557-105.112583l-3.390728-6.781457z m-77.986755 27.125828c-67.81457 0-125.456954 135.629139-227.178808 27.125828 0 0 0-3.390728-3.390729-3.390729 3.390728-16.953642 13.562914-30.516556 20.344371-44.07947l6.781457-6.781457s0-3.390728 3.390729-3.390728l115.284768-149.192053 115.284768 152.582781 6.781457 6.781457c6.781457 13.562914 13.562914 23.735099 16.953642 37.298013-10.172185-13.562914-30.516556-16.953642-54.251655-16.953642z" fill="#2c2c2c" p-id="6657"></path></svg>