<?xml version="1.0" standalone="no"?><!DOCTYPE svg PUBLIC "-//W3C//DTD SVG 1.1//EN" "http://www.w3.org/Graphics/SVG/1.1/DTD/svg11.dtd"><svg t="1715910058682" class="icon" viewBox="0 0 1024 1024" version="1.1" xmlns="http://www.w3.org/2000/svg" p-id="3142" xmlns:xlink="http://www.w3.org/1999/xlink" width="32" height="32"><path d="M512 0C229.2 0 0 229.2 0 512s229.2 512 512 512 512-229.2 512-512S794.8 0 512 0zM72.4 494.3c2.1-53.2 13.6-104.7 34.2-153.5 22.2-52.4 53.9-99.4 94.3-139.9 40.4-40.4 87.5-72.2 139.9-94.3C395 83.6 452.6 72 512 72c59.4 0 117 11.6 171.2 34.5 52.4 22.2 99.4 53.9 139.9 94.3 40.4 40.4 72.2 87.5 94.3 139.9 14.5 34.3 24.5 69.9 29.8 106.5-27.4-13.8-62.9-28.6-103.9-39.1-57-14.6-113.1-17.7-166.7-9.3-67.2 10.5-130.2 39.2-187.2 85.2-60 48.5-119.5 78.7-176.8 89.9-44.4 8.7-87.9 6-129.4-8.1-59.2-20-98.3-58.1-110.8-71.5z m750.7 328.8c-40.4 40.4-87.5 72.2-139.9 94.3C629 940.4 571.4 952 512 952c-59.4 0-117-11.6-171.2-34.5-52.4-22.2-99.4-53.9-139.9-94.3-40.4-40.4-72.2-87.5-94.3-139.9-12.2-28.9-21.2-58.7-27-89.2 36.2 24.3 86.2 48.2 148.1 55 11.6 1.3 23.2 1.9 34.8 1.9 89.4 0 180.8-37.2 272.1-110.9 46.6-37.6 97.7-61.1 151.8-69.9 43.6-7 89.7-4.6 136.8 7.1 59.8 14.9 106.7 41.3 128.3 54.9-2.3 52.3-13.8 103-34.1 151-22.1 52.4-53.8 99.5-94.3 139.9z" fill="" p-id="3143"></path></svg>