<?xml version="1.0" standalone="no"?><!DOCTYPE svg PUBLIC "-//W3C//DTD SVG 1.1//EN" "http://www.w3.org/Graphics/SVG/1.1/DTD/svg11.dtd"><svg t="1715918045864" class="icon" viewBox="0 0 1024 1024" version="1.1" xmlns="http://www.w3.org/2000/svg" p-id="40081" xmlns:xlink="http://www.w3.org/1999/xlink" width="32" height="32"><path d="M19.968 524.8h442.368V288.768H19.968v-41.984h204.8V0H38.4C27.648 0 18.432 9.216 18.432 19.968v749.568c0 10.752 9.216 19.968 19.968 19.968h186.368v-215.552h-204.8v-49.152z" fill="#606060" p-id="40082"></path><path d="M265.216 0h453.632v246.784H265.216zM985.6 0h-224.768v246.784h245.248V19.968c-0.512-10.752-9.728-19.968-20.48-19.968zM928.768 573.952c-5.632 0-10.752 0-14.848 2.048-29.184 9.216-182.784 82.432-182.784 166.4v100.352c0 47.616-27.648 95.232-53.248 109.568-29.184 16.384-78.848 16.384-105.984 0-25.6-14.848-53.248-61.952-53.248-109.568V742.4c0-80.384-147.968-150.016-188.416-164.352-2.048-2.048-5.632-2.048-7.168-2.048l-3.584-3.584h-49.152v215.552h188.416v53.248c0 66.048 36.352 137.216 83.968 162.816 23.552 12.8 53.248 19.968 82.432 19.968 29.184 0 58.368-7.168 82.432-19.968 47.616-25.6 83.968-96.768 83.968-162.816v-53.248h194.048c10.752 0 19.968-9.216 19.968-19.968v-195.584l-76.8 1.536c2.048-1.536 2.048 0 0 0zM504.832 288.768h501.248v237.568H504.832z" fill="#606060" p-id="40083"></path></svg>