<?xml version="1.0" standalone="no"?><!DOCTYPE svg PUBLIC "-//W3C//DTD SVG 1.1//EN" "http://www.w3.org/Graphics/SVG/1.1/DTD/svg11.dtd"><svg t="1715913566695" class="icon" viewBox="0 0 1024 1024" version="1.1" xmlns="http://www.w3.org/2000/svg" p-id="11135" xmlns:xlink="http://www.w3.org/1999/xlink" width="32" height="32"><path d="M64 960h917.5v21.5H42.5V42.5h21.5m106.5 171q-13 0-24.5-5-12-5-20.5-13.5-9-9-14-20.5-5-12-5-25 0-13.5 5-25t14-20q8.5-9 20.5-14 11.5-5 24.5-5 13.5 0 25 5t20.5 14q8.5 8.5 13.5 20t5 25q0 17-8 31.5-8.5 14-22 22.5l180.5 381 82.5-141q-18-7-29.5-23t-11.5-36.5q0-13.5 5-25t14-20q8.5-9 20.5-14 11.5-5 24.5-5 13.5 0 25 5t20.5 14q8.5 8.5 13.5 20t5 25q0 17-8 31t-21 22.5l39 44.5 224.5-285q-10-9-15.5-21-5.5-12.5-5.5-26.5 0-13.5 5-25t14-20q8.5-9 20-14t25-5q13.5 0 25 5t20.5 14q8.5 8.5 13.5 20t5 25q0 13-5 25-5 11.5-13.5 20.5-9 8.5-20.5 13.5t-25 5q-5.5 0-10-1-5-1-9.5-2.5l-129 407 205 233.5-27-211q-2.5 0.5-4 0.5h-4q-13.5 0-25-5t-20-13.5q-9-9-14-20.5t-5-25q0-13.5 5-25t14-20q8.5-9 20-14t25-5q13 0 25 5 11.5 5 20.5 14 8.5 8.5 13.5 20t5 25q0 19-9.5 34.5-10 15-26 23l35 282.5-241-274.5-23 72.5q13 8.5 21.5 22.5 8 14 8 31.5 0 13.5-5 25t-13.5 20.5q-9 8.5-20.5 13.5t-25 5q-13 0-24.5-5-12-5-20.5-13.5-9-9-14-20.5t-5-25q0-13.5 5-25t14-20q8.5-9 20.5-14 11.5-5 24.5-5 7.5 0 14.5 1.5l26.5-83-94.5-107-147.5 187.5-34.5-73-73.5 125.5q14.5 8.5 23.5 23 8.5 14.5 8.5 32 0 13.5-5 25t-13.5 20.5q-9 8.5-20.5 13.5-12 5-25 5-13.5 0-25-5t-20-13.5q-9-9-14-20.5t-5-25q0-13 5-24.5 5-12 14-20.5 8.5-9 20-14t25-5q5.5 0 11.5 1.5l83-141.5-187.5-394.5q-7 1.5-14 1.5m491 554.5q0-9-3.5-16.5-3.5-8-9-13.5-6-6-13.5-9-8-3.5-17-3.5-17.5 0-30 12.5t-12.5 30q0 17.5 12.5 30t30 12.5q9 0 17-3 7.5-3.5 13.5-9 5.5-6 9-13.5 3.5-8 3.5-17m170.5-661.5q-9 0-16.5 3.5-8 3.5-13.5 9.5-6 5.5-9 13.5-3.5 7.5-3.5 16.5 0 17.5 12.5 30t30 12.5q17.5 0 30-12.5t12.5-30q0-9-3-16.5-3.5-8-9-13.5-6-6-13.5-9.5-8-3.5-17-3.5m-52.5 137.5l-200.5 254.5 88 100M489.5 448l-93.5 150.5 26 64.5 129-163.5-46.5-53q-7.5 1.5-15 1.5M170.5 106.5q-9 0-16.5 3.5-8 3.5-13.5 9.5-6 5.5-9 13.5-3.5 7.5-3.5 16.5 0 17.5 12.5 30t30 12.5q9 0 17-3 7.5-3.5 13.5-9 5.5-6 9-13.5 3.5-8 3.5-17t-3.5-16.5q-3.5-8-9-13.5-6-6-13.5-9.5-8-3.5-17-3.5z" fill="#000000" p-id="11136"></path><path d="M885.5 148q0 11-4 21-4.5 9.5-11.5 17-7.5 7.5-17.5 12-10 4-21 4t-20.5-4q-10-4.5-17-12-7.5-7.5-11.5-17-4.5-10-4.5-21t4.5-20.5q4-10 11.5-17 7-7.5 17-11.5 9.5-4.5 20.5-4.5t21 4.5q10 4 17.5 11.5 7 7 11.5 17 4 9.5 4 20.5m-660 3.5q0 11-4 21-4.5 9.5-11.5 17-7.5 7.5-17 12-10 4-21 4t-20.5-4q-10-4.5-17.5-12t-11.5-17q-4.5-10-4.5-21t4.5-20.5q4-10 11.5-17 7.5-7.5 17.5-11.5 9.5-4.5 20.5-4.5t21 4.5q9.5 4 17 11.5 7 7 11.5 17 4 9.5 4 20.5m451 616q0 11.5-4 21.5-4.5 9.5-11.5 17-7.5 7-17.5 11.5-10 4-21 4t-20.5-4q-10-4.5-17-11.5-7.5-7.5-11.5-17-4.5-10-4.5-21.5 0-11 4.5-20.5 4-10 11.5-17 7-7.5 17-11.5 9.5-4.5 20.5-4.5t21 4.5q10 4 17.5 11.5 7 7 11.5 17 4 9.5 4 20.5z" fill="#FAFAFA" p-id="11137"></path><path d="M832 85.5q13.5 0 25 5t20.5 14q8.5 8.5 13.5 20t5 25q0 13-5 25-5 11.5-13.5 20.5-9 8.5-20.5 13.5t-25 5q-5.5 0-10-1-5-1-9.5-2.5l-159.5 504q13 8.5 21.5 22.5 8 14 8 31.5 0 13.5-5 25t-13.5 20.5q-9 8.5-20.5 13.5t-25 5q-13 0-24.5-5-12-5-20.5-13.5-9-9-14-20.5t-5-25q0-13.5 5-25t14-20q8.5-9 20.5-14 11.5-5 24.5-5 7.5 0 14.5 1.5l146.5-461.5-362 459-233-491q-7 1.5-14 1.5-13 0-24.5-5-12-5-20.5-13.5-9-9-14-20.5-5-12-5-25 0-13.5 5-25t14-20q8.5-9 20.5-14 11.5-5 24.5-5 13.5 0 25 5t20.5 14q8.5 8.5 13.5 20t5 25q0 17-8 31.5-8.5 14-22 22.5l217.5 459.5 367-466q-10-9-15.5-21-5.5-12.5-5.5-26.5 0-13.5 5-25t14-20q8.5-9 20-14t25-5M170.5 192q9 0 17-3 7.5-3.5 13.5-9 5.5-6 9-13.5 3.5-8 3.5-17t-3.5-16.5q-3.5-8-9-13.5-6-6-13.5-9.5-8-3.5-17-3.5t-16.5 3.5q-8 3.5-13.5 9.5-6 5.5-9 13.5-3.5 7.5-3.5 16.5 0 17.5 12.5 30t30 12.5m491 576q0-9-3.5-16.5-3.5-8-9-13.5-6-6-13.5-9-8-3.5-17-3.5-17.5 0-30 12.5t-12.5 30q0 17.5 12.5 30t30 12.5q9 0 17-3 7.5-3.5 13.5-9 5.5-6 9-13.5 3.5-8 3.5-17m170.5-576q17.5 0 30-12.5t12.5-30q0-9-3-16.5-3.5-8-9-13.5-6-6-13.5-9.5-8-3.5-17-3.5t-16.5 3.5q-8 3.5-13.5 9.5-6 5.5-9 13.5-3.5 7.5-3.5 16.5 0 17.5 12.5 30t30 12.5z" fill="#1E8BCD" p-id="11138"></path><path d="M64 960h917.5v21.5H42.5V42.5h21.5m818 591l35 282.5-412.5-469.5q-7.5 1.5-15 1.5l-180 307.5q14.5 8.5 23.5 23 8.5 14.5 8.5 32 0 13.5-5 25t-13.5 20.5q-9 8.5-20.5 13.5-12 5-25 5-13.5 0-25-5t-20-13.5q-9-9-14-20.5t-5-25q0-13 5-24.5 5-12 14-20.5 8.5-9 20-14t25-5q5.5 0 11.5 1.5l178.5-304.5q-18-7-29.5-23t-11.5-36.5q0-13.5 5-25t14-20q8.5-9 20.5-14 11.5-5 24.5-5 13.5 0 25 5t20.5 14q8.5 8.5 13.5 20t5 25q0 17-8 31t-21 22.5l363 413-27-211q-2.5 0.5-4 0.5h-4q-13.5 0-25-5t-20-13.5q-9-9-14-20.5t-5-25q0-13.5 5-25t14-20q8.5-9 20-14t25-5q13 0 25 5 11.5 5 20.5 14 8.5 8.5 13.5 20t5 25q0 19-9.5 34.5-10 15-26 23z" fill="#3A3A38" p-id="11139"></path></svg>