<?xml version="1.0" standalone="no"?><!DOCTYPE svg PUBLIC "-//W3C//DTD SVG 1.1//EN" "http://www.w3.org/Graphics/SVG/1.1/DTD/svg11.dtd"><svg t="1715927020614" class="icon" viewBox="0 0 1024 1024" version="1.1" xmlns="http://www.w3.org/2000/svg" p-id="44145" xmlns:xlink="http://www.w3.org/1999/xlink" width="32" height="32"><path d="M957.15 662.448c-41.9-41.898-92.78-59.858-146.654-59.858-23.946 0-47.886 2.992-71.83 11.97L406.448 282.344c26.938-74.826 8.98-158.626-47.886-218.486C319.652 24.95 268.772 4 214.9 4 181.976 4 152.046 9.986 122.118 24.95c-17.958 8.978-23.944 32.922-8.98 47.886l101.76 101.762-35.916 35.914-101.758-101.76c-5.988-5.986-11.972-8.98-20.952-8.98-11.972 0-20.952 5.986-26.938 17.958C-9.572 195.546 2.4 294.316 68.246 360.16c41.902 41.902 92.78 59.86 146.654 59.86 23.942 0 47.886-2.994 68.838-11.974l332.218 332.22c-26.938 74.822-8.978 158.626 47.886 218.482 41.9 41.902 92.784 59.862 146.654 59.862 32.922 0 62.854-5.984 92.784-20.95 17.956-8.978 23.942-32.924 8.978-47.89l-101.762-101.758 35.916-35.916 101.76 101.762c5.986 5.984 11.97 8.978 20.952 8.978 11.97 0 20.952-5.986 26.938-17.958 38.906-77.818 26.934-176.586-38.912-242.43z m1.642 178.964l-0.724 3.72-71.638-72.972c-11.22-11.384-25.69-18.16-40.744-18.16h-0.368c-14.91 0-29.334 6.468-40.616 17.598l-36.488 36.154c-11.384 11.228-17.71 25.786-17.814 40.83-0.104 15.048 6.028 29.646 17.26 41.03l72.368 73.388-5.098-0.022c-4.278 0-8.712 0.798-13 1.484-4.442 0.708-9.034 1.538-13.626 1.538h-0.306c-41.83 0-80.782-17.394-106.868-46.786-41.164-41.726-54.816-102.82-35.554-159.294 8.808-20.194 3.346-43.71-14.198-61.496L318.474 360.906c-11.23-11.382-25.7-17.714-40.744-17.818l-2.136-0.012c-4.98 0-10.502 0.212-18.392 2.782-14.646 5.75-32.276 8.81-50.876 8.81l-1.156-0.004c-41.828-0.286-80.78-17.306-106.87-46.696-36.108-36.608-51.38-85.794-41.828-134.874l0.724-3.722 71.638 72.726C140.068 253.48 154.54 260 169.582 260h0.376c14.908 0 29.33-6.216 40.61-17.342l36.486-36.038c23.456-23.136 23.698-58.292 0.562-81.75l-72.37-73.38 5.088 0.028c4.278 0 8.716-1.05 13.008-1.736 4.446-0.71 9.042-1.784 13.64-1.784h0.29c41.828 0 80.778 17.648 106.868 47.036 41.162 41.728 54.814 102.948 35.556 159.422-8.81 20.194-3.348 43.774 14.196 61.554L696.794 653.56c11.234 11.382 25.706 17.73 40.746 17.834l2.34 0.022c5.806 0 13.092-0.3 17.924-2.678 14.938-5.86 32.582-8.916 51.18-8.916l1.12 0.004c41.824 0.292 80.776 17.316 106.868 46.706 36.102 36.606 51.372 85.794 41.82 134.88z" fill="" p-id="44146"></path><path d="M433.384 674.42l-83.802-83.802c-8.978-11.97-23.944-17.958-41.902-17.958-14.962 0-29.928 5.986-41.9 17.958L50.288 806.11c-23.944 23.944-23.944 59.862 0 83.804l83.802 83.8c11.972 11.972 26.936 17.958 41.902 17.958 14.964 0 29.93-5.984 41.902-17.958l215.492-215.49c23.942-23.944 23.942-59.86-0.002-83.804zM172.436 943.708L81.288 852.56l229.934-229.934 91.148 91.146L172.436 943.708zM1011.026 96.782L927.22 12.978C924.226 6.992 915.25 4 906.272 4s-14.964 2.992-20.952 8.978l-146.654 146.654c-11.972 11.972-11.972 29.93 0 41.902l20.952 20.95-146.654 146.654c-11.972 11.974-11.972 29.93 0 41.9 5.986 5.988 14.964 8.98 20.95 8.98s14.962-2.994 20.952-8.98l146.652-146.654 20.954 20.952c5.984 5.986 14.964 8.978 20.95 8.978 5.986 0 14.964-2.994 20.954-8.978l146.654-146.654c11.966-11.974 11.966-29.93-0.004-41.9z m-171.776 139.594l-51.626-51.62 124.816-124.818 51.626 51.622-124.816 124.816z" fill="" p-id="44147"></path></svg>