<?xml version="1.0" standalone="no"?><!DOCTYPE svg PUBLIC "-//W3C//DTD SVG 1.1//EN" "http://www.w3.org/Graphics/SVG/1.1/DTD/svg11.dtd"><svg t="1715911210671" class="icon" viewBox="0 0 1024 1024" version="1.1" xmlns="http://www.w3.org/2000/svg" p-id="8879" xmlns:xlink="http://www.w3.org/1999/xlink" width="32" height="32"><path d="M146.773333 430.08l23.893334 23.893333 17.066666 17.066667c37.546667 37.546667 58.026667 54.613333 58.026667 116.053333 0 61.44-17.066667 78.506667-54.613333 112.64-3.413333 10.24-13.653333 17.066667-20.48 23.893334-13.653333 17.066667-13.653333 40.96 0 58.026666 6.826667 6.826667 17.066667 13.653333 27.306666 10.24 10.24 0 17.066667-3.413333 23.893334-10.24l10.24-10.24c58.026667-61.44 85.333333-88.746667 85.333333-174.08V587.093333c0-85.333333-34.133333-119.466667-92.16-177.493333l-6.826667-6.826667c-98.986667-105.813333-98.986667-180.906667 0-283.306666 20.48-20.48 20.48-44.373333 6.826667-61.44-6.826667-6.826667-17.066667-10.24-27.306667-10.24-10.24 0-20.48 3.413333-27.306666 10.24-61.44 58.026667-98.986667 136.533333-98.986667 221.866666 0 78.506667 23.893333 98.986667 75.093333 150.186667zM464.213333 430.08l20.48 20.48c102.4 105.813333 102.4 167.253333 0 273.066667-13.653333 17.066667-13.653333 40.96 0 58.026666 6.826667 6.826667 17.066667 10.24 27.306667 10.24 10.24 0 20.48-3.413333 23.893333-10.24l10.24-10.24c58.026667-61.44 85.333333-92.16 85.333334-180.906666 0-88.746667-30.72-122.88-92.16-184.32l-6.826667-6.826667c-13.653333-13.653333-23.893333-23.893333-34.133333-30.72-27.306667-23.893333-40.96-34.133333-40.96-88.746667 0-64.853333 27.306667-122.88 75.093333-167.253333 13.653333-13.653333 13.653333-40.96 0-58.026667-6.826667-6.826667-17.066667-10.24-27.306667-10.24-10.24 0-20.48 3.413333-27.306666 10.24-61.44 58.026667-98.986667 136.533333-98.986667 221.866667 0 75.093333 20.48 98.986667 64.853333 143.36l20.48 10.24zM774.826667 426.666667l23.893333 23.893333c102.4 105.813333 102.4 167.253333 0 273.066667-13.653333 17.066667-13.653333 40.96 0 58.026666 13.653333 13.653333 40.96 13.653333 54.613333 0l10.24-10.24c58.026667-61.44 85.333333-92.16 85.333334-180.906666 0-88.746667-30.72-122.88-92.16-184.32l-3.413334-6.826667c-13.653333-13.653333-23.893333-23.893333-34.133333-30.72-27.306667-23.893333-40.96-34.133333-40.96-88.746667 0-64.853333 27.306667-122.88 75.093333-167.253333 13.653333-13.653333 13.653333-40.96 0-58.026667-6.826667-6.826667-17.066667-10.24-27.306666-10.24-10.24 0-20.48 3.413333-27.306667 10.24-61.44 58.026667-98.986667 136.533333-98.986667 221.866667 3.413333 75.093333 27.306667 98.986667 75.093334 150.186667zM972.8 897.706667H47.786667c-20.48 0-37.546667 20.48-37.546667 40.96s17.066667 40.96 40.96 40.96h921.6c20.48-3.413333 37.546667-20.48 37.546667-40.96s-13.653333-40.96-37.546667-40.96z" p-id="8880"></path></svg>