<?xml version="1.0" standalone="no"?><!DOCTYPE svg PUBLIC "-//W3C//DTD SVG 1.1//EN" "http://www.w3.org/Graphics/SVG/1.1/DTD/svg11.dtd"><svg t="1715910191376" class="icon" viewBox="0 0 1024 1024" version="1.1" xmlns="http://www.w3.org/2000/svg" p-id="5367" xmlns:xlink="http://www.w3.org/1999/xlink" width="32" height="32"><path d="M292.608 688.992l-66.432 71.072h-136.64v-157.696c0-17.024-12.896-30.848-28.768-30.848S32 585.344 32 602.368v294.784c0 17.024 12.896 30.848 28.8 30.848 15.84 0 28.736-13.824 28.736-30.848V821.76h151.36c0.256 0 0.608-0.128 0.832-0.128 0.224 0 0.32 0 0.544-0.128 0.352 0 0.576-0.128 0.928-0.128 0.096 0 0.32 0 0.448-0.096 0.352-0.128 0.576-0.128 0.96-0.256 0.096 0 0.32-0.128 0.448-0.128 0.32-0.128 0.576-0.128 0.928-0.256 0.096 0 0.32-0.128 0.448-0.128a2.048 2.048 0 0 1 0.8-0.256l0.576-0.224c0.224-0.128 0.448-0.256 0.704-0.256 0.224-0.128 0.448-0.128 0.544-0.256 0.256-0.128 0.48-0.256 0.576-0.256l0.704-0.352c0.224-0.128 0.352-0.256 0.576-0.256l0.704-0.384c0.096-0.128 0.32-0.128 0.448-0.256 0.224-0.096 0.576-0.32 0.8-0.48 0.128-0.128 0.224-0.128 0.32-0.256l0.832-0.48c0.128-0.128 0.224-0.256 0.32-0.256 0.256-0.256 0.48-0.384 0.832-0.64a1.6 1.6 0 0 1 0.448-0.352c0.256-0.256 0.48-0.384 0.704-0.64 0.224-0.096 0.32-0.32 0.576-0.48 0.224-0.128 0.32-0.352 0.576-0.48 0.32-0.256 0.576-0.64 0.896-0.864l74.944-80.32a32.416 32.416 0 0 0 0-43.68 27.296 27.296 0 0 0-40.704-0.096z m667.008-185.824L454.432 155.968c-0.448-0.512-1.024-0.864-1.6-1.248a49.728 49.728 0 0 0-3.232-2.08l-75.264-51.712A27.2 27.2 0 0 0 358.784 96h-78.08a28.16 28.16 0 0 0-23.904 13.824l-155.392 250.336c-0.128 0.128-0.256 0.256-0.256 0.512-19.104 32.064-10.464 74.784 19.456 95.36l467.2 321.056a111.04 111.04 0 0 0 63.104 19.872c20.096 0 39.84-5.568 57.088-16.032l248.064-148.8c21.76-13.12 35.104-36.8 35.904-63.456 0.704-26.624-11.392-51.2-32.32-65.504zM149.504 394.08l146.656-236.288h54.208l45.6 31.36-170.144 265.792-74.112-50.848a7.68 7.68 0 0 1-2.208-10.016z m784.928 172.768a13.344 13.344 0 0 1-6.464 11.36l-248.032 148.928a55.936 55.936 0 0 1-61.024-1.984l-344.64-236.896 170.144-265.92 484.256 332.8a13.28 13.28 0 0 1 5.76 11.712z" fill="#333333" p-id="5368"></path></svg>