<?xml version="1.0" standalone="no"?><!DOCTYPE svg PUBLIC "-//W3C//DTD SVG 1.1//EN" "http://www.w3.org/Graphics/SVG/1.1/DTD/svg11.dtd"><svg t="1716185366351" class="icon" viewBox="0 0 1024 1024" version="1.1" xmlns="http://www.w3.org/2000/svg" p-id="15818" xmlns:xlink="http://www.w3.org/1999/xlink" width="32" height="32"><path d="M704 896l-448 128-256-128V128l192 96v128L128 320v512l128 64 448-128 192 64V320l-64-21.312V179.2L1024 256v768zM256 256a256 256 0 0 1 512 0c0 141.376-256 448-256 448S256 397.376 256 256z m384 0a128 128 0 1 0-128 128 128 128 0 0 0 128-128z" fill="#4C89FB" p-id="15819"></path></svg>