<?xml version="1.0" standalone="no"?><!DOCTYPE svg PUBLIC "-//W3C//DTD SVG 1.1//EN" "http://www.w3.org/Graphics/SVG/1.1/DTD/svg11.dtd"><svg t="1715914503976" class="icon" viewBox="0 0 1024 1024" version="1.1" xmlns="http://www.w3.org/2000/svg" p-id="17349" xmlns:xlink="http://www.w3.org/1999/xlink" width="32" height="32"><path d="M572.928 88.576h-112.64c-45.056 0-85.504 41.984-85.504 89.088 0 46.592 40.448 89.088 85.504 89.088h112.64c45.056 0 85.504-37.376 85.504-89.088 0-46.592-40.448-89.088-85.504-89.088z m0 327.68h-112.64c-45.056 0-85.504 41.984-85.504 89.088S415.232 593.92 460.288 593.92h112.64c45.056 0 85.504-41.984 85.504-89.088s-40.448-88.576-85.504-88.576z m0 317.952h-112.64c-45.056 0-85.504 41.984-85.504 89.088 0 46.592 40.448 89.088 85.504 89.088h112.64c45.056 0 85.504-41.984 85.504-89.088s-40.448-89.088-85.504-89.088z m211.968-603.136v-56.32l-90.112 98.304 90.112 93.696V196.608c65.536 2.56 117.248 57.856 117.248 125.952 0 70.144-54.272 126.464-121.856 126.464h-31.744c-17.92 0-31.744 13.824-31.744 32.768 0 18.432 13.312 32.768 31.744 32.768h31.744c103.936 0 184.832-83.968 184.832-191.488-0.512-105.984-83.456-189.44-180.224-192zM244.224 780.8c-65.536-2.56-117.248-57.856-117.248-125.952 0-70.144 54.272-126.464 121.856-126.464h31.744c17.92 0 31.744-13.824 31.744-32.768s-13.312-32.768-31.744-32.768h-31.744c-103.424 0-184.832 88.576-184.832 191.488 0 105.984 82.944 188.928 180.224 191.488v60.928L334.336 808.96l-90.112-93.696v65.536z" p-id="17350"></path></svg>