<?xml version="1.0" standalone="no"?><!DOCTYPE svg PUBLIC "-//W3C//DTD SVG 1.1//EN" "http://www.w3.org/Graphics/SVG/1.1/DTD/svg11.dtd"><svg t="1715910273378" class="icon" viewBox="0 0 1024 1024" version="1.1" xmlns="http://www.w3.org/2000/svg" p-id="6496" xmlns:xlink="http://www.w3.org/1999/xlink" width="32" height="32"><path d="M792.17 559.253V102.187H182.796v457.066L39.349 692.885v212.907H230.56V633.813h513.813v271.979h191.211V692.885L792.171 559.253zM182.796 847.456l-0.214 10.71-10.453-0.171H87.147V713.664l95.648-88.97v222.762z m561.578-261.44H230.56v-55.883h513.813v55.883z m0-380.64l-43.541 43.541h43.541v244.95H230.56V249.408l49.397-49.301H230.56v-50.123h513.813v55.392z m143.435 652.63H792.16V624.596l95.648 88.96v144.448z" p-id="6497"></path><path d="M698.315 738.955l-34.582-25.942c-14.997-11.306-32.832-17.269-51.605-17.269s-36.63 5.984-51.627 17.29l-34.56 25.92c-8.437 6.358-18.496 9.707-29.088 9.707s-20.629-3.349-29.045-9.706l-34.603-25.942a84.992 84.992 0 0 0-51.605-17.269c-18.752 0-36.587 5.963-51.563 17.237l-44.682 33.867a18.507 18.507 0 0 0-3.542 26.016c3.542 4.672 8.939 7.339 14.816 7.339 4.128 0 7.894-1.27 11.211-3.787l44.725-33.899c8.459-6.357 18.518-9.717 29.11-9.717s20.629 3.35 29.066 9.696l34.603 25.963c14.976 11.317 32.81 17.29 51.584 17.29s36.63-6.005 51.648-17.333l34.517-25.899c8.459-6.357 18.518-9.717 29.11-9.717s20.629 3.35 29.066 9.707l35.062 26.325a18.758 18.758 0 0 0 11.754 4.181c2.422 0 4.768-0.469 6.998-1.386 6.293-2.539 10.666-8.331 11.434-15.104 0.758-6.838-2.346-13.44-8.202-17.568z m0 108.064l-34.582-25.942a85.12 85.12 0 0 0-51.605-17.269 85.12 85.12 0 0 0-51.627 17.29l-34.56 25.92c-8.437 6.358-18.496 9.707-29.088 9.707s-20.629-3.349-29.045-9.706l-34.603-25.942a85.067 85.067 0 0 0-51.605-17.269c-18.752 0-36.587 5.973-51.563 17.248l-44.682 33.856a18.517 18.517 0 0 0-3.542 26.027 18.453 18.453 0 0 0 14.816 7.338c4.128 0 7.894-1.28 11.211-3.786l44.725-33.899c8.459-6.368 18.518-9.728 29.11-9.728s20.629 3.35 29.066 9.707l34.603 25.952c14.976 11.317 32.81 17.29 51.584 17.29s36.63-5.994 51.648-17.333l34.517-25.888c8.459-6.368 18.518-9.728 29.11-9.728s20.629 3.36 29.066 9.717l35.062 26.315a18.706 18.706 0 0 0 11.754 4.192 18.517 18.517 0 0 0 18.432-16.49c0.758-6.838-2.346-13.451-8.202-17.58zM487.253 200.107h-35.04l-48.48 48.48h35.04z m-103.69 0H348.65l-48.48 48.48h34.912z m198.602 0h-34.912l-48.565 48.48h34.997z m103.691 0h-35.04l-48.48 48.48h35.04z" p-id="6498"></path></svg>