<?xml version="1.0" standalone="no"?><!DOCTYPE svg PUBLIC "-//W3C//DTD SVG 1.1//EN" "http://www.w3.org/Graphics/SVG/1.1/DTD/svg11.dtd"><svg t="1716174190842" class="icon" viewBox="0 0 1024 1024" version="1.1" xmlns="http://www.w3.org/2000/svg" p-id="6655" xmlns:xlink="http://www.w3.org/1999/xlink" width="32" height="32"><path d="M895.786667 306.026667a8.32 8.32 0 0 0-0.32-2.346667c-0.106667-0.853333-0.32-1.6-0.533334-2.453333-0.106667-0.533333-0.32-1.066667-0.533333-1.6a9.546667 9.546667 0 0 0-0.853333-2.453334c-0.213333-0.533333-0.426667-1.173333-0.746667-1.706666-0.426667-0.853333-0.853333-1.706667-1.386667-2.56-0.426667-0.853333-0.96-1.706667-1.6-2.453334a8.053333 8.053333 0 0 0-1.173333-1.493333c-0.213333-0.32-0.426667-0.533333-0.64-0.853333l-132.053333-149.333334a32.181333 32.181333 0 0 0-24-10.773333H292.053333c-9.173333 0-17.92 3.946667-24 10.773333l-132.053333 149.333334c-0.213333 0.32-0.426667 0.533333-0.64 0.853333-0.426667 0.426667-0.853333 0.96-1.173333 1.493333-0.64 0.746667-1.173333 1.6-1.6 2.453334-0.533333 0.746667-0.96 1.6-1.386667 2.56a24.608 24.608 0 0 0-1.706667 4.373333c-0.213333 0.64-0.426667 1.173333-0.533333 1.813333-0.213333 0.64-0.32 1.173333-0.426667 1.813334-0.106667 0.853333-0.32 1.706667-0.32 2.56-0.106667 1.066667-0.213333 2.133333-0.213333 3.2V864c0 17.706667 14.293333 32 32 32h704c17.706667 0 32-14.293333 32-32V309.44v-0.213333c0-1.066667-0.106667-2.133333-0.213333-3.2zM306.453333 192h411.093334l75.413333 85.333333H231.04l75.413333-85.333333zM832 832H192V341.333333h640v490.666667z" p-id="6656"></path><path d="M725.333333 672c0 17.706667-14.293333 32-32 32H330.666667c-17.706667 0-32-14.293333-32-32 0-13.973333 8.853333-25.813333 21.333333-30.08V501.333333c0-17.706667 14.293333-32 32-32s32 14.293333 32 32v138.666667h106.666667V501.333333c0-17.706667 14.293333-32 32-32s32 14.293333 32 32v138.666667h85.333333V501.333333c0-17.706667 14.293333-32 32-32s32 14.293333 32 32v140.586667c12.48 4.266667 21.333333 16.106667 21.333333 30.08z" p-id="6657"></path></svg>