<?xml version="1.0" standalone="no"?><!DOCTYPE svg PUBLIC "-//W3C//DTD SVG 1.1//EN" "http://www.w3.org/Graphics/SVG/1.1/DTD/svg11.dtd"><svg t="1715934377806" class="icon" viewBox="0 0 1024 1024" version="1.1" xmlns="http://www.w3.org/2000/svg" p-id="53578" xmlns:xlink="http://www.w3.org/1999/xlink" width="32" height="32"><path d="M149.12512 893.09184a41.8816 41.8816 0 0 1-15.27808-57.02656l55.66464-96.39936a41.8816 41.8816 0 0 1 57.02656-15.27808 41.86112 41.86112 0 0 1 15.27808 57.01632l-55.66464 96.4096a41.8816 41.8816 0 0 1-57.02656 15.27808z m194.84672 96.39936a41.86112 41.86112 0 0 1-15.27808-57.00608l111.32928-192.8192a41.89184 41.89184 0 0 1 57.02656-15.27808c19.8656 11.4688 26.76736 37.16096 15.27808 57.01632L400.9984 974.22336a41.8304 41.8304 0 0 1-57.02656 15.26784z m306.06336-96.39936a41.8816 41.8816 0 0 1-15.27808-57.02656l55.66464-96.39936a41.89184 41.89184 0 0 1 57.02656-15.27808c19.8656 11.4688 26.76736 37.16096 15.27808 57.01632l-55.67488 96.4096a41.8816 41.8816 0 0 1-57.01632 15.27808zM504.00256 106.53696A236.36992 236.36992 0 0 1 721.8176 250.64448l21.34016 50.2272 54.56896 0.59392c75.91936 0.83968 137.64608 63.20128 137.64608 139.03872 0 76.73856-62.42304 139.14112-139.14112 139.14112H211.78368c-61.39904 0-111.32928-49.90976-111.32928-111.3088a110.94016 110.94016 0 0 1 99.6352-110.70464l60.08832-6.23616 12.89216-59.02336c23.48032-107.69408 120.61696-185.83552 230.93248-185.83552m0-83.49696c-153.21088 0-281.11872 107.73504-312.51456 251.53536C84.49024 286.06464 7.0656 382.1056 18.55488 489.10336c10.60864 98.79552 93.85984 173.80352 193.2288 174.04928h584.45824c122.96192 0 222.63808-99.66592 222.63808-222.64832 0-122.15296-98.38592-221.19424-220.23168-222.53568C749.91616 103.39328 636.37504 23.04 504.00256 23.04z" fill="#1A1A1A" p-id="53579"></path></svg>