<?xml version="1.0" standalone="no"?><!DOCTYPE svg PUBLIC "-//W3C//DTD SVG 1.1//EN" "http://www.w3.org/Graphics/SVG/1.1/DTD/svg11.dtd"><svg t="1715910000392" class="icon" viewBox="0 0 1024 1024" version="1.1" xmlns="http://www.w3.org/2000/svg" p-id="2825" xmlns:xlink="http://www.w3.org/1999/xlink" width="32" height="32"><path d="M878.914 292.752c1.192-9.866 2.308-21.272 2.308-29.674 0-137.682-113.494-249.702-252.994-249.702-88.802 0-170.718 46.244-216.24 119.992-28.286-19.07-61.714-29.328-96.69-29.328-94.73 0-171.792 76.048-171.792 169.54a168.58 168.58 0 0 0 2.79 30.626C64.962 333.324 10 409.424 10 496.768c0 111.178 89.272 195.024 207.654 195.024H812.1c114.508 0 207.654-91.934 207.654-204.954 0-87.788-58.07-166.206-140.84-194.086z m-72.762 346.272H223.598c-89.46 0-156.916-62.394-156.916-145.14 0-72.096 49.534-134.042 120.458-150.666a23.232 23.232 0 0 0 15.004-11.218 22.77 22.77 0 0 0 1.696-18.51 118.37 118.37 0 0 1-6.322-38.328c0-66.264 54.624-120.17 121.77-120.17 32.266 0 62.678 12.326 85.634 34.718 5.422 5.284 13.12 7.684 20.602 6.23 7.49-1.368 13.83-6.248 16.97-13.094 32.604-70.904 104.616-116.706 183.46-116.706 111.022 0 201.344 89.158 201.344 198.726 0 11.276-3.258 34.266-4.506 42.178-1.904 11.97 5.938 23.344 17.91 26 70.898 15.694 122.364 79.234 122.364 151.104 0.002 85.406-70.382 154.876-156.914 154.876zM255.292 896.514c-1.11 0-2.236-0.082-3.362-0.23-12.992-1.826-22.048-13.682-20.208-26.516l15.848-110.772c1.836-12.824 13.808-21.748 26.86-19.942 12.986 1.828 22.038 13.682 20.206 26.518l-15.846 110.77c-1.67 11.706-11.85 20.172-23.498 20.172zM403.844 1006c-1.11 0-2.238-0.08-3.37-0.23-13-1.838-22.038-13.692-20.19-26.534l31.688-220.254c1.848-12.824 13.826-21.704 26.868-19.928 13.01 1.826 22.048 13.692 20.192 26.536l-31.69 220.256c-1.68 11.704-11.858 20.154-23.498 20.154zM574.106 1006c-1.118 0-2.234-0.08-3.376-0.23-12.998-1.838-22.038-13.692-20.184-26.534l31.694-220.254c1.838-12.824 13.866-21.704 26.87-19.928 12.998 1.826 22.038 13.692 20.19 26.536l-31.69 220.256c-1.694 11.704-11.866 20.154-23.504 20.154zM754.344 896.514c-1.12-0.004-2.24-0.082-3.348-0.23-12.994-1.826-22.046-13.682-20.218-26.516l15.848-110.772c1.838-12.824 13.776-21.748 26.868-19.94 12.986 1.826 22.038 13.68 20.208 26.518l-15.85 110.77c-1.676 11.704-11.846 20.17-23.508 20.17z" fill="" p-id="2826"></path></svg>